# xmcd
#
# Track frame offsets:
#	150
#	18124
#	34085
#	56430
#	76610
#	91355
#	109737
#	125084
#	139050
#	163178
#	177629
#	201282
#	217541
#	237559
#
# Disc length: 3442 seconds
#
# Revision: 0
# Processed by: cddbd v1.5PL3 Copyright (c) Steve Scherf et al.
# Submitted via: EasyCDDAExtractor 4.5.0.2
#
DISCID=b90d700e
DTITLE=Siggi Fassl - We keep movin' on
DYEAR=2004
DGENRE=Blues
TTITLE0=That's No Way To Get Along
TTITLE1=Can't Be Satisfied
TTITLE2=Cheap Hotel
TTITLE3=Mojo Hand
TTITLE4=We Keep Moving On
TTITLE5=Too Weak To Fight
TTITLE6=Nobody's Business
TTITLE7=Memories I Never Lose
TTITLE8=Bring Me Flowers
TTITLE9=Steel Guitar Rag
TTITLE10=Dust My Broom
TTITLE11=Heaven Done Call
TTITLE12=Rollin' and Tumblin'
TTITLE13=Change Places With Me
EXTD=
EXTT0=
EXTT1=
EXTT2=
EXTT3=
EXTT4=
EXTT5=
EXTT6=
EXTT7=
EXTT8=
EXTT9=
EXTT10=
EXTT11=
EXTT12=
EXTT13=
PLAYORDER=
